<svg id="Layer_1" data-name="Layer 1" xmlns="http://www.w3.org/2000/svg" viewBox="0 0 863.7 664.47"><path d="M661.73,444.65C621.05,587.79,580.63,730,540.22,872.22h-2.37C497.44,730.05,457,587.86,416.32,444.65Z" transform="translate(-108.15 -207.77)"/><path d="M969.44,446.23,601.09,822.49l-1.78-1c5.34-19.11,10.61-38.24,16-57.33,29.27-102.79,58.74-205.53,87.6-308.44,2.73-9.73,6.75-12.2,16.44-12.14,79.09.42,158.19.23,237.29.23h11.4C968.53,444.64,969,445.43,969.44,446.23Z" transform="translate(-108.15 -207.77)"/><path d="M476.65,821.86,109.2,444.48c5.59-.29,8.89-.6,12.2-.61,79.75,0,159.51.09,239.26-.19,7.86,0,11.61,1.79,13.9,9.91q50.35,179.06,101.36,357.92c.9,3.16,1.61,6.36,2.4,9.54Z" transform="translate(-108.15 -207.77)"/><path d="M785.15,207.77,686.65,385c-49.45-59-97.92-116.78-147.58-176-49.17,58.62-97.82,116.61-147.74,176.1-33.37-59.28-66.27-117.7-99.87-177.37Z" transform="translate(-108.15 -207.77)"/><path d="M727.25,400.24C759.53,342.15,791.3,285,824,226.08L971.85,400.24Z" transform="translate(-108.15 -207.77)"/><path d="M108.15,400.67,253.24,227.23l97.62,173.44Z" transform="translate(-108.15 -207.77)"/><path d="M434.52,400.45,539,275.68,643.61,400.45Z" transform="translate(-108.15 -207.77)"/></svg>