<svg id="Layer_1" data-name="Layer 1" xmlns="http://www.w3.org/2000/svg" viewBox="0 0 950.76 951.59"><path d="M712.79,540.93c0-141.36.56-282.72-.44-424.07-.22-31,20.26-53.41,52.65-52.78,66.07,1.27,132.18.35,198.28.39,34.5,0,52,17.3,52,51.72q.06,424.59,0,849.19c0,33.49-16.38,49.87-49.73,49.89-67.85,0-135.72-.72-203.55.34-30.83.48-49.74-21.11-49.57-49.56C713.25,824.35,712.79,682.64,712.79,540.93ZM864,777.44v-.13c28.45,0,56.91.34,85.36-.15,13.76-.24,22.58-9.53,22.36-21.56-.21-11.63-8.88-20.05-22-21.23-2.44-.22-4.92-.13-7.37-.13q-78.53,0-157,.07A53.25,53.25,0,0,0,770.87,736c-9.84,2.84-15,11.27-14.28,21.81.69,9.66,7.18,17.1,16.87,18.75a75.61,75.61,0,0,0,12.59.84Q825.05,777.51,864,777.44Zm-.73,86.16v0c27.75,0,55.52.54,83.24-.37,7-.23,16.07-3.31,20-8.35s4.47-14.63,2.78-21.28c-2.4-9.39-11.44-12.73-20.88-12.82-18.26-.17-36.53-.06-54.8-.06-37.23,0-74.46-.07-111.7,0-14.87,0-23.81,6.8-25.2,18.52-1.68,14.09,7,24,22.29,24.19C807.11,863.86,835.21,863.6,863.31,863.6Zm.39-625.79c-27.75,0-55.51-.06-83.26,0-14.82,0-23.69,7.82-23.93,20.63-.24,13.33,8.87,21.9,23.93,21.92q83.26.14,166.52,0c14.85,0,24.79-8.77,24.8-21.41S962,237.87,947,237.83C919.2,237.76,891.45,237.81,863.7,237.81Z" transform="translate(-64.51 -64.06)"/><path d="M367,540.86c0,141.36-.52,282.73.42,424.09.2,30.31-19.18,51.24-50.62,50.69-66.78-1.18-133.59-.33-200.39-.37-34.46,0-51.86-17.37-51.87-51.85q0-423.55,0-847.12c0-34.52,17.37-51.81,51.85-51.83,66.45,0,132.91.78,199.34-.35,32-.55,51.84,22.54,51.66,51.6C366.51,257.43,367,399.15,367,540.86ZM215,777.38v-.09c28.81,0,57.62.35,86.42-.15,13.59-.24,21.63-8.69,21.85-20.72.22-12.5-8.07-21.84-21.89-21.93-56.9-.41-113.82-.3-170.73-.09-9.79,0-17.7,4.44-21.23,14.33-5.31,14.87,4.71,28.22,22.33,28.52C159.51,777.74,187.27,777.38,215,777.38Zm1.06,86.23c28.11,0,56.21.21,84.31-.08,14.19-.15,22.68-8.27,22.89-20.69.23-12.92-8.51-21.9-22.94-22-56.2-.25-112.41-.15-168.61-.07-9.86,0-17.93,3.77-21.95,13.36-6.11,14.59,3.92,29.05,20.95,29.31C159.17,863.92,187.63,863.6,216.08,863.61Zm-.23-625.8c-27.75,0-55.51-.06-83.26,0-15,0-24.75,8.66-24.57,21.37s10.09,21.18,25,21.19q82.74.09,165.46,0c15.47,0,24.6-7.93,24.76-21.11.16-13.68-8.85-21.43-25.21-21.46Q256.95,237.75,215.85,237.81Z" transform="translate(-64.51 -64.06)"/><path d="M691.51,637.88c0,109-.43,218,.32,327.06.18,26-15.25,51.29-51,50.68-67.49-1.17-135-.31-202.52-.35-33.15,0-50.07-16.87-50.07-49.8q0-328.63,0-657.28c0-31.91,16.92-49.15,48.49-49.18q103.37-.12,206.74,0c30.87.05,48,17.47,48,48.65Q691.55,472.78,691.51,637.88ZM539.73,842.51c-14.76,0-29.52-.06-44.28,0s-29.53-.21-44.23.69c-10.91.67-18.22,8.87-19,19.09-.81,10.62,5.87,19.71,16.77,22.3a45.46,45.46,0,0,0,10.42,1.06q80.65.09,161.29,0a43.79,43.79,0,0,0,12.44-1.7,21,21,0,0,0-2.8-40.57,76.69,76.69,0,0,0-12.59-.82Q578.74,842.45,539.73,842.51Zm.18-367.84c27.41,0,54.83,0,82.24,0,16.16,0,25.6-8.09,25.44-21.52-.16-12.94-9.59-21-25-21q-82.77-.08-165.54,0c-15.31,0-24.77,8.14-24.91,21.06-.14,13.09,9.21,21.43,24.42,21.47C484.38,474.73,512.14,474.67,539.91,474.67Z" transform="translate(-64.51 -64.06)"/></svg>