<svg id="Layer_1" data-name="Layer 1" xmlns="http://www.w3.org/2000/svg" viewBox="0 0 1080 842.94"><path d="M0,504.07V489.31c5.71-6.58,11.2-13.36,17.15-19.72q154.31-164.7,308.71-329.32c11.62-12.38,17.66-13.62,33.57-6.94,54.18,22.72,110.45,37.07,169.28,38.91,65.58,2,128.12-12.83,188.56-37.43,20.88-8.5,23.66-8.08,39.7,8q154.38,154.36,308.69,308.81c5.16,5.16,9.58,11.07,14.34,16.63V483c-2.94,3.36-5.69,6.9-8.84,10.06q-83.84,84-167.79,167.8c-12,12-23.67,12-35.65-.17-7.54-7.64-14.34-16-21.47-24.06l-3.61,2.26V651.1q0,145.54,0,291.11c0,23.23-6.91,30-30.17,30H269.33c-25.9,0-32-6.14-32-32.49q0-144.5,0-289V635.44c-17.05,17.18-31.5,32-46.21,46.51-13.46,13.31-25.08,12.76-37.63-1.49q-25.77-29.3-51.43-58.69Q51,563,0,504.07Z" transform="translate(0 -129.31)"/></svg>