<svg id="Layer_1" data-name="Layer 1" xmlns="http://www.w3.org/2000/svg" viewBox="0 0 692.01 1080"><path d="M375.51,1080c-3.12-1.36-6.21-2.77-9.35-4.08-24.05-10-40.45-27.48-41.21-53.61-1.52-52.24-.45-104.55-.45-157.74H755.89c.18,3.85.51,7.58.51,11.31,0,40.4-1.19,80.85.37,121.19s-12,69.61-52.16,82.93Z" transform="translate(-194.13)"/><path d="M871.27,0c11.05,6.5,15.39,15.92,14.83,28.89-.81,18.55-.21,37.17-.21,56.64H194.46c0-22.42-1.06-44.88.66-67.13C195.61,12,204.05,6.12,208.85,0Z" transform="translate(-194.13)"/><path d="M196.48,129.58H883.25c0,7.54.48,14.78-.08,21.93-5.95,76-10.6,152-18.48,227.79a1969.76,1969.76,0,0,1-61.1,324.18c-10.13,36.43-22.63,72.2-33.74,108.36-2.08,6.74-5.21,9.14-12.58,9.12q-217.23-.37-434.45,0c-7.39,0-10.23-2.56-12.58-9.13a1543.81,1543.81,0,0,1-67.08-253.79c-13.1-75.28-24.54-151-33.17-226.87-7.18-63.1-9.21-126.77-13.48-190.19C196.28,137.55,196.48,134.08,196.48,129.58ZM625.66,539.76V367.81H454.45v172Z" transform="translate(-194.13)"/></svg>