<svg id="Layer_1" data-name="Layer 1" xmlns="http://www.w3.org/2000/svg" viewBox="0 0 1037.82 1038.04"><path d="M539.08,950.85q-168.78,0-337.56,0C155.7,950.84,129,924,129,878q0-338.16,0-676.32c0-46,26.74-72.79,72.59-72.8q338.61,0,677.23,0c45.09,0,72,27,72,72.29q0,338.69,0,677.37c0,45.26-27,72.27-72.06,72.28Q708.91,950.87,539.08,950.85ZM733.62,389.62H346.14V690.3H733.62Z" transform="translate(-20.96 -20.85)"/><path d="M107.33,388.36v43.22c-23.18,0-46.21.75-69.15-.33-10.43-.5-17.59-11.53-17.18-21.95.41-10.75,8.7-20.39,20-20.74C62.67,387.88,84.38,388.36,107.33,388.36Z" transform="translate(-20.96 -20.85)"/><path d="M972.5,431.94V388.51c22.82,0,45.17-.64,67.46.27,11.18.45,19,10.9,18.82,21.73s-8.37,20.88-19.42,21.23C1017.37,432.43,995.34,431.94,972.5,431.94Z" transform="translate(-20.96 -20.85)"/><path d="M107.32,647.65v43.86c-13.35,0-26.53,0-39.7,0-8.77,0-17.59.47-26.3-.24a21.75,21.75,0,0,1,.7-43.45c18.93-.46,37.89-.15,56.83-.16Z" transform="translate(-20.96 -20.85)"/><path d="M972.49,691.43V647.65h25.88c12.63,0,25.26-.22,37.89.08,13,.3,22.39,9.48,22.52,21.52a21.46,21.46,0,0,1-21,22C1016.49,691.87,995.13,691.43,972.49,691.43Z" transform="translate(-20.96 -20.85)"/><path d="M388.41,972.52h43.22c0,23.16.74,46.19-.34,69.14-.49,10.43-11.53,17.6-21.94,17.19-10.76-.41-20.38-8.66-20.74-20C387.91,1017.18,388.41,995.47,388.41,972.52Z" transform="translate(-20.96 -20.85)"/><path d="M647.68,972.51h43.83c0,8.82,0,17.43,0,26,0,13,.39,26-.18,39-.56,12.44-10.06,21.29-21.67,21.36a21.42,21.42,0,0,1-21.85-21C647.35,1016.46,647.68,995.1,647.68,972.51Z" transform="translate(-20.96 -20.85)"/><path d="M432.13,107.21H388.76c0-23.1-.79-45.8.33-68.41.56-11.18,11.59-18.52,22.4-17.9a22.16,22.16,0,0,1,20.43,19.32,54.51,54.51,0,0,1,.2,7.35C432.13,67.14,432.13,86.71,432.13,107.21Z" transform="translate(-20.96 -20.85)"/><path d="M647.91,106.71c0-22.61-.61-45,.26-67.3.42-10.94,11.2-18.83,22-18.52,11.55.33,20.89,9.28,21.19,21.85.49,21,.13,42,.13,64Z" transform="translate(-20.96 -20.85)"/><path d="M561.2,107.09H518.87c0-23.4-.63-46.46.29-69.46.41-10.2,11.59-17.42,22.16-16.72S560.75,29.42,561,40.5C561.6,62.25,561.2,84,561.2,107.09Z" transform="translate(-20.96 -20.85)"/><path d="M107.19,518.56V561c-23.3,0-46,.59-68.74-.26-10.54-.39-17.8-10.81-17.46-21.59s8-20,18.89-20.37C62,518.09,84.07,518.56,107.19,518.56Z" transform="translate(-20.96 -20.85)"/><path d="M972.35,561V518.15c6,0,11.81,0,17.6,0,16.17.07,32.35-.27,48.5.38,12.16.5,20.3,9.67,20.33,21.26s-8.06,20.92-20.22,21.34c-19.32.68-38.66.36-58,.41C978.17,561.56,975.78,561.25,972.35,561Z" transform="translate(-20.96 -20.85)"/><path d="M561.07,972.78c0,23.13.52,45.55-.22,67.94-.35,10.68-10.21,18.16-21,18.15s-20.61-7.5-21-18.19c-.72-22.38-.22-44.8-.22-67.9Z" transform="translate(-20.96 -20.85)"/><path d="M302.47,107.13H259.41c0-23.26-.52-46,.24-68.72.34-10.22,11.08-17.84,21.64-17.53,11.1.34,19.23,8.08,20.74,19.91a65.62,65.62,0,0,1,.42,8.41C302.49,68.15,302.47,87.09,302.47,107.13Z" transform="translate(-20.96 -20.85)"/><path d="M820.56,107.13H778.2c0-23.44-.73-46.49.32-69.46C779,27.09,789.9,20.2,800.58,20.9c11.09.73,19.66,9.05,19.87,20.66C820.84,63,820.56,84.4,820.56,107.13Z" transform="translate(-20.96 -20.85)"/><path d="M107.19,259.33v42c-23.69,0-47.09.74-70.4-.36-9.87-.47-16.4-11.53-15.79-21.8.58-9.75,7.93-19.34,17.4-19.63C61.12,258.85,83.87,259.33,107.19,259.33Z" transform="translate(-20.96 -20.85)"/><path d="M972.55,302V259.32c23.27,0,46-.54,68.72.24,10.29.36,17.81,11,17.51,21.64-.32,11.13-8.17,20.26-19.88,20.62C1017.17,302.49,995.41,302,972.55,302Z" transform="translate(-20.96 -20.85)"/><path d="M107.05,820.46c-23,0-45.47.48-67.86-.2-10.48-.32-18.18-10.37-18.2-21C21,788,28.64,778.51,40.16,778c18.58-.86,37.23-.43,55.85-.53,3.45,0,6.89,0,11,0Z" transform="translate(-20.96 -20.85)"/><path d="M972.57,820.59V778.06c23.26,0,46-.64,68.66.28,10.72.44,17.84,10.7,17.54,21.48-.3,11.08-8.53,20.37-19.85,20.63C1017.18,820.94,995.43,820.59,972.57,820.59Z" transform="translate(-20.96 -20.85)"/><path d="M259.24,972.61h42.33c0,23.46.74,46.52-.33,69.49-.5,10.64-11.32,17.44-22.09,16.75s-19.55-8.81-19.78-19.61C258.91,1017.47,259.24,995.69,259.24,972.61Z" transform="translate(-20.96 -20.85)"/><path d="M777.62,972.66h42.82c0,23,.44,45.39-.19,67.78-.3,10.5-10.19,18.31-20.86,18.43-11.62.12-21.15-7.73-21.57-20C777.08,1017.13,777.62,995.37,777.62,972.66Z" transform="translate(-20.96 -20.85)"/></svg>