<svg id="Layer_2" data-name="Layer 2" xmlns="http://www.w3.org/2000/svg" viewBox="0 0 853.24 972.67"><defs><style>.cls-1{fill:#212121;stroke:#212121;stroke-miterlimit:10;stroke-width:7px;}</style></defs><path class="cls-1" d="M116.88,59.17v449a2,2,0,0,0,1,1.72C339.29,641.45,564.63,775,786.06,906.58a2,2,0,0,0,2,0c50.54-28.94,99.81-61.45,150.31-90.48a2,2,0,0,0,0-3.45c-220-130.13-442.54-256.26-662.54-386.41a2,2,0,0,1-1-1.72V333.76a2,2,0,0,1,3-1.73L960.11,730.89a2,2,0,0,0,3-1.73v-670A2,2,0,0,0,960,57.5c-50.9,33.91-101.8,64.39-152.71,98.4a2,2,0,0,0-.89,1.67V453.25a2,2,0,0,1-3,1.73C575.57,323.78,347.73,188.63,119.88,57.43A2,2,0,0,0,116.88,59.17Z" transform="translate(-113.38 -53.66)"/><path class="cls-1" d="M116.88,598.31V751.89a2,2,0,0,0,1,1.72c126.56,74.27,347.65,194.67,474.22,268.95a2,2,0,0,0,2,0c43.28-25.75,87.51-51.5,130.81-77.25a2,2,0,0,0,0-3.44c-170.31-99.79-434.69-245.47-605-345.27A2,2,0,0,0,116.88,598.31Z" transform="translate(-113.38 -53.66)"/></svg>